<?xml version="1.0" encoding="UTF-8"?>
<svg version="1.1" xmlns="http://www.w3.org/2000/svg" width="100" height="100">
<path d="M0 0 C1.98171852 1.21520475 3.7034797 2.48339227 5.4453125 4.01953125 C6.2703125 4.74140625 7.0953125 5.46328125 7.9453125 6.20703125 C9.4453125 8.01953125 9.4453125 8.01953125 9.4453125 10.01953125 C11.0953125 10.01953125 12.7453125 10.01953125 14.4453125 10.01953125 C13.1253125 10.34953125 11.8053125 10.67953125 10.4453125 11.01953125 C10.9403125 12.00953125 10.9403125 12.00953125 11.4453125 13.01953125 C11.48553641 15.35251785 11.48851497 17.68659791 11.4453125 20.01953125 C12.0228125 20.12265625 12.6003125 20.22578125 13.1953125 20.33203125 C15.82658265 21.13603046 17.43219343 22.1502064 19.4453125 24.01953125 C19.4453125 25.00953125 19.4453125 25.99953125 19.4453125 27.01953125 C20.7653125 27.67953125 22.0853125 28.33953125 23.4453125 29.01953125 C23.62133442 32.62798054 23.38453441 35.21874832 22.3203125 38.70703125 C22.0315625 39.80015625 21.7428125 40.89328125 21.4453125 42.01953125 C22.1053125 43.00953125 22.7653125 43.99953125 23.4453125 45.01953125 C24.12139915 49.65780012 24.03132689 53.74095439 22.0703125 58.01953125 C18.74153163 60.55574524 15.9672266 60.81182682 11.890625 61.41796875 C9.11602248 61.90186546 9.11602248 61.90186546 6.4453125 64.64453125 C2.67936192 67.62590879 0.46974938 67.5139478 -4.1875 67.390625 C-6.66164152 67.00276453 -8.39348195 66.25948559 -10.5546875 65.01953125 C-11.4828125 65.82390625 -12.4109375 66.62828125 -13.3671875 67.45703125 C-18.90817177 72.25921762 -25.57138631 71.48508466 -32.5546875 71.01953125 C-37.80449265 69.3014132 -40.93551208 66.06956089 -44.5546875 62.01953125 C-44.5546875 61.35953125 -44.5546875 60.69953125 -44.5546875 60.01953125 C-45.5240625 60.04015625 -46.4934375 60.06078125 -47.4921875 60.08203125 C-50.5546875 60.01953125 -50.5546875 60.01953125 -51.5546875 59.01953125 C-51.59549533 57.01994761 -51.59723106 55.01907871 -51.5546875 53.01953125 C-49.5746875 52.52453125 -49.5746875 52.52453125 -47.5546875 52.01953125 C-47.5546875 51.35953125 -47.5546875 50.69953125 -47.5546875 50.01953125 C-48.6375 50.17421875 -48.6375 50.17421875 -49.7421875 50.33203125 C-53.68750046 49.89366314 -55.00059964 47.92835354 -57.5546875 45.01953125 C-57.8846875 44.68953125 -58.2146875 44.35953125 -58.5546875 44.01953125 C-58.59549533 42.01994761 -58.59723106 40.01907871 -58.5546875 38.01953125 C-59.8746875 37.35953125 -61.1946875 36.69953125 -62.5546875 36.01953125 C-61.6575 35.67921875 -61.6575 35.67921875 -60.7421875 35.33203125 C-57.9827833 33.67638873 -57.14107968 31.77847418 -55.5546875 29.01953125 C-52.5546875 27.01953125 -52.5546875 27.01953125 -49.5546875 27.01953125 C-49.461875 25.68921875 -49.461875 25.68921875 -49.3671875 24.33203125 C-48.10028567 19.16696995 -44.85527553 16.88658993 -40.5546875 14.01953125 C-38.9318458 13.92601156 -37.30521409 13.88959044 -35.6796875 13.89453125 C-31.85029577 13.63460186 -31.85029577 13.63460186 -28.96484375 11.3203125 C-28.14874674 9.90974226 -27.37095081 8.47632241 -26.6328125 7.0234375 C-21.70680831 -2.13250507 -8.86823971 -3.40355989 0 0 Z " fill="#C8EBE5" transform="translate(67.5546875,14.98046875)"/>
<path d="M0 0 C1.08152344 -0.02578125 2.16304687 -0.0515625 3.27734375 -0.078125 C4.19644531 0.03015625 5.11554687 0.1384375 6.0625 0.25 C8.0625 3.25 8.0625 3.25 8.0625 6.25 C11.3625 6.25 14.6625 6.25 18.0625 6.25 C18.3925 5.26 18.7225 4.27 19.0625 3.25 C21.56785913 5.59877419 22.96814909 7.3411787 23.328125 10.80859375 C23.31399142 13.29963675 23.23619194 15.76524028 23.0625 18.25 C24.3825 18.58 25.7025 18.91 27.0625 19.25 C25.7425 19.25 24.4225 19.25 23.0625 19.25 C23.08570313 20.38179687 23.10890625 21.51359375 23.1328125 22.6796875 C23.15156901 24.16145175 23.16976934 25.64322312 23.1875 27.125 C23.20425781 27.87136719 23.22101563 28.61773437 23.23828125 29.38671875 C23.2558959 31.34194461 23.16570189 33.29742021 23.0625 35.25 C21.0625 37.25 21.0625 37.25 18.17333984 37.47705078 C16.96887207 37.46657715 15.7644043 37.45610352 14.5234375 37.4453125 C12.57050781 37.43564453 12.57050781 37.43564453 10.578125 37.42578125 C9.19791405 37.40906929 7.81770571 37.39213939 6.4375 37.375 C5.04948548 37.36497006 3.66146411 37.35584423 2.2734375 37.34765625 C-1.13038026 37.32401863 -4.53385506 37.29106867 -7.9375 37.25 C-8.081875 37.889375 -8.22625 38.52875 -8.375 39.1875 C-8.9375 41.25 -8.9375 41.25 -9.9375 42.25 C-11.93708364 42.29080783 -13.93795254 42.29254356 -15.9375 42.25 C-15.9375 41.92 -15.9375 41.59 -15.9375 41.25 C-14.968125 40.981875 -13.99875 40.71375 -13 40.4375 C-11.4840625 39.8496875 -11.4840625 39.8496875 -9.9375 39.25 C-9.6075 38.26 -9.2775 37.27 -8.9375 36.25 C0.6325 35.92 10.2025 35.59 20.0625 35.25 C20.3925 34.26 20.7225 33.27 21.0625 32.25 C20.37736328 32.28552979 19.69222656 32.32105957 18.98632812 32.35766602 C15.84536844 32.51646369 12.70398896 32.66455779 9.5625 32.8125 C7.94601563 32.89661133 7.94601563 32.89661133 6.296875 32.98242188 C0.39411245 33.25236528 -5.10268157 33.20594719 -10.9375 32.25 C-10.6075 33.24 -10.2775 34.23 -9.9375 35.25 C-10.5975 35.25 -11.2575 35.25 -11.9375 35.25 C-12.5975 34.26 -13.2575 33.27 -13.9375 32.25 C-16.33469432 31.57041397 -16.33469432 31.57041397 -18.9375 31.25 C-20.27292939 30.92516582 -21.60711551 30.5949145 -22.9375 30.25 C-23.5975 31.24 -24.2575 32.23 -24.9375 33.25 C-27.23894109 34.32136051 -29.5715213 35.32989717 -31.9375 36.25 C-31.9375 37.57 -31.9375 38.89 -31.9375 40.25 C-28.6375 40.58 -25.3375 40.91 -21.9375 41.25 C-21.9375 41.58 -21.9375 41.91 -21.9375 42.25 C-23.74992052 42.27687279 -25.56245233 42.29633715 -27.375 42.3125 C-28.38433594 42.32410156 -29.39367187 42.33570313 -30.43359375 42.34765625 C-32.9375 42.25 -32.9375 42.25 -33.9375 41.25 C-33.97830783 39.25041636 -33.98004356 37.24954746 -33.9375 35.25 C-31.9575 34.755 -31.9575 34.755 -29.9375 34.25 C-29.9375 33.59 -29.9375 32.93 -29.9375 32.25 C-28.6175 32.25 -27.2975 32.25 -25.9375 32.25 C-24.21272989 29.24198027 -23.67403627 27.0090733 -23.59375 23.5546875 C-23.56410156 22.67425781 -23.53445312 21.79382813 -23.50390625 20.88671875 C-23.45944767 19.03776492 -23.41517842 17.18880653 -23.37109375 15.33984375 C-23.34144531 14.46199219 -23.31179687 13.58414063 -23.28125 12.6796875 C-23.26255859 11.87772949 -23.24386719 11.07577148 -23.22460938 10.24951172 C-22.9375 8.25 -22.9375 8.25 -20.9375 6.25 C-19.9475 6.25 -18.9575 6.25 -17.9375 6.25 C-17.9375 4.93 -17.9375 3.61 -17.9375 2.25 C-15.6275 2.25 -13.3175 2.25 -10.9375 2.25 C-10.9375 3.57 -10.9375 4.89 -10.9375 6.25 C-9.9475 6.25 -8.9575 6.25 -7.9375 6.25 C-7.793125 5.445625 -7.64875 4.64125 -7.5 3.8125 C-6.48369805 -0.81732 -4.39462682 0.06270573 0 0 Z " fill="#573C38" transform="translate(49.9375,32.75)"/>
<path d="M0 0 C2.375 -0.125 2.375 -0.125 5 0 C7 2 7 2 7 5 C8.32 5.66 9.64 6.32 11 7 C11.17602192 10.60844929 10.93922191 13.19921707 9.875 16.6875 C9.58625 17.780625 9.2975 18.87375 9 20 C9.99 21.485 9.99 21.485 11 23 C11.67608665 27.63826887 11.58601439 31.72142314 9.625 36 C6.29621913 38.53621399 3.5219141 38.79229557 -0.5546875 39.3984375 C-3.32929002 39.88233421 -3.32929002 39.88233421 -6 42.625 C-9.76595058 45.60637754 -11.97556312 45.49441655 -16.6328125 45.37109375 C-19.10695402 44.98323328 -20.83879445 44.23995434 -23 43 C-24.3921875 44.2065625 -24.3921875 44.2065625 -25.8125 45.4375 C-31.35348427 50.23968637 -38.01669881 49.46555341 -45 49 C-50.24980515 47.28188195 -53.38082458 44.05002964 -57 40 C-57 39.34 -57 38.68 -57 38 C-58.98 37.34 -60.96 36.68 -63 36 C-62.75 33.625 -62.75 33.625 -62 31 C-59.43689172 29.2058242 -58.16880694 29 -55 29 C-54.34 27.68 -53.68 26.36 -53 25 C-49.57956185 25.78933188 -46.26202163 26.69519135 -43 28 C-42.67 28.99 -42.34 29.98 -42 31 C-41.67 30.01 -41.34 29.02 -41 28 C-30.44 28 -19.88 28 -9 28 C-9.33 29.32 -9.66 30.64 -10 32 C-19.57 32 -29.14 32 -39 32 C-39.33 33.32 -39.66 34.64 -40 36 C-39.34 35.01 -38.68 34.02 -38 33 C-35.12670898 32.58349609 -35.12670898 32.58349609 -31.49609375 32.5234375 C-30.19865234 32.4925 -28.90121094 32.4615625 -27.56445312 32.4296875 C-26.1888125 32.4106883 -24.81316091 32.39246871 -23.4375 32.375 C-20.74849348 32.3270665 -18.0599064 32.26976781 -15.37109375 32.2109375 C-14.17411865 32.19337402 -12.97714355 32.17581055 -11.74389648 32.15771484 C-9.08859116 32.31037956 -9.08859116 32.31037956 -8 31 C-7.76321284 28.30764224 -7.57801975 25.63501844 -7.4375 22.9375 C-7.37272461 21.79958008 -7.37272461 21.79958008 -7.30664062 20.63867188 C-7.20026367 18.75934562 -7.09960066 16.87969756 -7 15 C-2.05 14.34 2.9 13.68 8 13 C8.33 11.35 8.66 9.7 9 8 C8.01 7.34 7.02 6.68 6 6 C5.690625 5.34 5.38125 4.68 5.0625 4 C3.75812758 1.54471073 2.53372703 1.01349081 0 0 Z " fill="#C2E6DF" transform="translate(80,37)"/>
<path d="M0 0 C3.42043815 0.78933188 6.73797837 1.69519135 10 3 C10.33 3.99 10.66 4.98 11 6 C11.33 5.01 11.66 4.02 12 3 C22.56 3 33.12 3 44 3 C43.67 4.32 43.34 5.64 43 7 C33.43 7 23.86 7 14 7 C13.67 8.32 13.34 9.64 13 11 C7.71185517 12.80168263 3.71452368 13.12517909 -1.9375 12.625 C-2.62134766 12.56828125 -3.30519531 12.5115625 -4.00976562 12.453125 C-5.67417046 12.31345466 -7.33726886 12.15835535 -9 12 C-9.33 10.35 -9.66 8.7 -10 7 C-5.375 4 -5.375 4 -2 4 C-1.34 2.68 -0.68 1.36 0 0 Z " fill="#F8F6E9" transform="translate(27,62)"/>
<path d="M0 0 C1.37478516 0.01740234 1.37478516 0.01740234 2.77734375 0.03515625 C3.69644531 0.04417969 4.61554687 0.05320313 5.5625 0.0625 C6.27277344 0.07410156 6.98304687 0.08570313 7.71484375 0.09765625 C8.37484375 2.07765625 9.03484375 4.05765625 9.71484375 6.09765625 C11.10509766 6.08025391 11.10509766 6.08025391 12.5234375 6.0625 C13.72097656 6.05347656 14.91851562 6.04445313 16.15234375 6.03515625 C17.34730469 6.02355469 18.54226562 6.01195312 19.7734375 6 C22.71484375 6.09765625 22.71484375 6.09765625 23.71484375 7.09765625 C23.75548207 8.7638274 23.75756475 10.4315372 23.71484375 12.09765625 C22.3833786 12.29799244 21.04946522 12.48205642 19.71484375 12.66015625 C18.60109375 12.81677734 18.60109375 12.81677734 17.46484375 12.9765625 C14.60297888 13.10258212 11.96579164 12.73327318 9.13671875 12.34008789 C4.01543274 11.82744303 -1.14398296 11.99687718 -6.28515625 12.03515625 C-7.44144531 12.03966797 -8.59773438 12.04417969 -9.7890625 12.04882812 C-12.6211485 12.06053096 -15.45312436 12.07692629 -18.28515625 12.09765625 C-18.28515625 10.44765625 -18.28515625 8.79765625 -18.28515625 7.09765625 C-13.66515625 6.76765625 -9.04515625 6.43765625 -4.28515625 6.09765625 C-3.95515625 4.44765625 -3.62515625 2.79765625 -3.28515625 1.09765625 C-2.28515625 0.09765625 -2.28515625 0.09765625 0 0 Z " fill="#CCC7B9" transform="translate(47.28515625,33.90234375)"/>
<path d="M0 0 C3.2018934 3.27998837 3.98343458 5.03920538 4.0625 9.625 C2.77457968 13.71604102 1.75514634 14.9591596 -2 17 C-6.05704375 17.57957768 -8.25456163 17.36478899 -11.9375 15.5625 C-14.56649025 12.29617878 -14.65624401 10.22716232 -14.43359375 6.125 C-13.81336094 3.08530045 -12.49683357 1.76247076 -10 0 C-6.70294057 -1.64852972 -3.40201564 -1.08032449 0 0 Z " fill="#B3ADBD" transform="translate(55,47)"/>
<path d="M0 0 C0.33 0 0.66 0 1 0 C1 8.25 1 16.5 1 25 C0.67 24.34 0.34 23.68 0 23 C-2.54941373 22.68758629 -5.00361513 22.48696579 -7.5625 22.375 C-8.27341797 22.33632812 -8.98433594 22.29765625 -9.71679688 22.2578125 C-11.47742425 22.16328217 -13.23867728 22.08054183 -15 22 C-14.51144531 21.08476563 -14.02289063 20.16953125 -13.51953125 19.2265625 C-11.75490911 15.47957564 -11.62055155 13.09804321 -12 9 C-12.66 7.68 -13.32 6.36 -14 5 C-9.38 4.67 -4.76 4.34 0 4 C0 2.68 0 1.36 0 0 Z " fill="#B97845" transform="translate(71,42)"/>
<path d="M0 0 C2.4375 0.875 2.4375 0.875 4.4375 3.875 C5.22125 3.66875 6.005 3.4625 6.8125 3.25 C8.111875 3.064375 8.111875 3.064375 9.4375 2.875 C11.4375 4.875 11.4375 4.875 11.4375 7.875 C12.7575 8.535 14.0775 9.195 15.4375 9.875 C14.5625 14.75 14.5625 14.75 13.4375 15.875 C8.39259151 16.71581808 3.40705033 17.3658651 -1.5625 15.875 C-1.59988281 15.18792969 -1.63726562 14.50085937 -1.67578125 13.79296875 C-1.74152344 12.89191406 -1.80726562 11.99085937 -1.875 11.0625 C-1.93300781 10.16917969 -1.99101563 9.27585937 -2.05078125 8.35546875 C-2.62563581 5.56896 -3.3831856 4.63364246 -5.5625 2.875 C-3.71830214 0.44842386 -3.12817806 -0.15259405 0 0 Z " fill="#F7F5E9" transform="translate(74.5625,35.125)"/>
<path d="M0 0 C1.08152344 -0.02578125 2.16304687 -0.0515625 3.27734375 -0.078125 C4.19644531 0.03015625 5.11554687 0.1384375 6.0625 0.25 C8.0625 3.25 8.0625 3.25 8.0625 6.25 C11.3625 6.25 14.6625 6.25 18.0625 6.25 C18.3925 5.26 18.7225 4.27 19.0625 3.25 C21.56785913 5.59877419 22.96814909 7.3411787 23.328125 10.80859375 C23.31399142 13.29963675 23.23619194 15.76524028 23.0625 18.25 C24.3825 18.58 25.7025 18.91 27.0625 19.25 C25.7425 19.25 24.4225 19.25 23.0625 19.25 C23.08570313 20.38179687 23.10890625 21.51359375 23.1328125 22.6796875 C23.15156901 24.16145175 23.16976934 25.64322312 23.1875 27.125 C23.20425781 27.87136719 23.22101563 28.61773437 23.23828125 29.38671875 C23.2558959 31.34194461 23.16570189 33.29742021 23.0625 35.25 C21.0625 37.25 21.0625 37.25 18.17333984 37.47705078 C16.96887207 37.46657715 15.7644043 37.45610352 14.5234375 37.4453125 C12.57050781 37.43564453 12.57050781 37.43564453 10.578125 37.42578125 C9.19791405 37.40906929 7.81770571 37.39213939 6.4375 37.375 C5.04948548 37.36497006 3.66146411 37.35584423 2.2734375 37.34765625 C-1.13038026 37.32401863 -4.53385506 37.29106867 -7.9375 37.25 C-8.081875 37.889375 -8.22625 38.52875 -8.375 39.1875 C-8.9375 41.25 -8.9375 41.25 -9.9375 42.25 C-11.93708364 42.29080783 -13.93795254 42.29254356 -15.9375 42.25 C-15.9375 41.92 -15.9375 41.59 -15.9375 41.25 C-14.968125 40.981875 -13.99875 40.71375 -13 40.4375 C-11.4840625 39.8496875 -11.4840625 39.8496875 -9.9375 39.25 C-9.6075 38.26 -9.2775 37.27 -8.9375 36.25 C-8.06424072 36.22494385 -7.19098145 36.1998877 -6.29125977 36.17407227 C-3.06147448 36.07912291 0.16814154 35.97987971 3.39770508 35.87768555 C4.79739199 35.83428566 6.19713359 35.79261436 7.59692383 35.75268555 C9.60511495 35.69510555 11.61311149 35.63086 13.62109375 35.56640625 C15.43565063 35.51141968 15.43565063 35.51141968 17.28686523 35.45532227 C19.96955456 35.56061734 19.96955456 35.56061734 21.0625 34.25 C21.16209621 32.40840977 21.19330411 30.56303033 21.1953125 28.71875 C21.19660156 27.59855469 21.19789062 26.47835937 21.19921875 25.32421875 C21.19341797 23.55498047 21.19341797 23.55498047 21.1875 21.75 C21.19136719 20.57050781 21.19523437 19.39101563 21.19921875 18.17578125 C21.19728516 16.49548828 21.19728516 16.49548828 21.1953125 14.78125 C21.19362061 13.22760742 21.19362061 13.22760742 21.19189453 11.64257812 C21.33215153 9.29702177 21.33215153 9.29702177 20.0625 8.25 C17.87957226 8.01518307 15.69046826 7.83636677 13.5 7.6875 C12.30246094 7.60371094 11.10492188 7.51992188 9.87109375 7.43359375 C8.94425781 7.37300781 8.01742187 7.31242187 7.0625 7.25 C6.4025 5.6 5.7425 3.95 5.0625 2.25 C1.7625 2.25 -1.5375 2.25 -4.9375 2.25 C-5.5975 3.57 -6.2575 4.89 -6.9375 6.25 C-4.9575 6.25 -2.9775 6.25 -0.9375 6.25 C-0.9375 6.58 -0.9375 6.91 -0.9375 7.25 C-5.45565281 8.13277755 -9.71262694 8.35589503 -14.3125 8.3125 C-16.18035156 8.29896484 -16.18035156 8.29896484 -18.0859375 8.28515625 C-19.49746094 8.26775391 -19.49746094 8.26775391 -20.9375 8.25 C-20.9375 9.9 -20.9375 11.55 -20.9375 13.25 C-21.5975 11.93 -22.2575 10.61 -22.9375 9.25 C-22.2775 8.26 -21.6175 7.27 -20.9375 6.25 C-19.9475 6.25 -18.9575 6.25 -17.9375 6.25 C-17.9375 4.93 -17.9375 3.61 -17.9375 2.25 C-15.6275 2.25 -13.3175 2.25 -10.9375 2.25 C-10.9375 3.57 -10.9375 4.89 -10.9375 6.25 C-9.9475 6.25 -8.9575 6.25 -7.9375 6.25 C-7.793125 5.445625 -7.64875 4.64125 -7.5 3.8125 C-6.48369805 -0.81732 -4.39462682 0.06270573 0 0 Z " fill="#513835" transform="translate(49.9375,32.75)"/>
<path d="M0 0 C4.62 0 9.24 0 14 0 C13.34 1.32 12.68 2.64 12 4 C11.51278986 9.26186946 12.33874419 12.45368799 15 17 C13.24929483 16.88529863 11.49942464 16.75780972 9.75 16.625 C8.77546875 16.55539063 7.8009375 16.48578125 6.796875 16.4140625 C4 16 4 16 0 14 C0 9.38 0 4.76 0 0 Z " fill="#BC7842" transform="translate(28,47)"/>
<path d="M0 0 C10.56 0 21.12 0 32 0 C31.67 1.32 31.34 2.64 31 4 C19.78 4.33 8.56 4.66 -3 5 C-2.67 4.01 -2.34 3.02 -2 2 C-1.34 2 -0.68 2 0 2 C0 1.34 0 0.68 0 0 Z " fill="#C5BFB2" transform="translate(39,65)"/>
<path d="M0 0 C1.8125 1.125 1.8125 1.125 3 3 C3.39310741 6.14485925 3.47555213 8.13281671 1.9375 10.9375 C-1.18142449 12.64787795 -3.65557801 11.80513863 -7 11 C-8.39935013 8.20129973 -8.25265405 6.09501208 -8 3 C-5.90534242 -0.30735407 -3.75951639 -0.56392746 0 0 Z " fill="#382D31" transform="translate(52,49)"/>
<path d="M0 0 C2.31 0 4.62 0 7 0 C7 1.32 7 2.64 7 4 C8.32 4.66 9.64 5.32 11 6 C6.38 6 1.76 6 -3 6 C-3 7.65 -3 9.3 -3 11 C-3.66 9.68 -4.32 8.36 -5 7 C-4.34 6.01 -3.68 5.02 -3 4 C-2.01 4 -1.02 4 0 4 C0 2.68 0 1.36 0 0 Z " fill="#76635D" transform="translate(32,35)"/>
<path d="M0 0 C1.98 0 3.96 0 6 0 C6 0.99 6 1.98 6 3 C7.65 3.33 9.3 3.66 11 4 C11 4.33 11 4.66 11 5 C7.7 5 4.4 5 1 5 C1 4.34 1 3.68 1 3 C-1.97 3 -4.94 3 -8 3 C-8 2.67 -8 2.34 -8 2 C-5.36 1.67 -2.72 1.34 0 1 C0 0.67 0 0.34 0 0 Z " fill="#F2FAF9" transform="translate(13,48)"/>
<path d="M0 0 C1.32 0 2.64 0 4 0 C4 1.65 4 3.3 4 5 C2.35 5 0.7 5 -1 5 C-0.67 3.35 -0.34 1.7 0 0 Z " fill="#D5D2C4" transform="translate(67,41)"/>
<path d="M0 0 C1.98 0 3.96 0 6 0 C6 0.99 6 1.98 6 3 C4.02 3 2.04 3 0 3 C0 2.01 0 1.02 0 0 Z " fill="#464448" transform="translate(61,42)"/>
</svg>
